<svg width="160" height="160" viewBox="0 0 160 160" fill="none" xmlns="http://www.w3.org/2000/svg">
<path d="M117.582 66.6484V127.73H40.1756V66.6484H117.582Z" fill="#FFA8A8"/>
<path d="M133.165 39.3392C133.525 39.3353 133.878 39.4383 134.179 39.6351C134.48 39.8319 134.716 40.1136 134.856 40.4445C134.997 40.7754 135.035 41.1404 134.967 41.4934C134.9 41.8463 134.728 42.1711 134.475 42.4266C134.222 42.6821 133.899 42.8567 133.547 42.9283C133.194 42.9998 132.828 42.9651 132.495 42.8285C132.163 42.6919 131.878 42.4596 131.678 42.1611C131.477 41.8626 131.37 41.5113 131.37 41.152C131.37 40.6746 131.559 40.2165 131.895 39.8771C132.231 39.5377 132.688 39.3444 133.165 39.3392Z" fill="#411514"/>
<path d="M95.646 29.3889C96.001 29.3889 96.3481 29.4941 96.6433 29.6911C96.9385 29.8881 97.1686 30.1681 97.3044 30.4958C97.4403 30.8234 97.4759 31.1839 97.4066 31.5317C97.3373 31.8796 97.1664 32.199 96.9153 32.4498C96.6643 32.7006 96.3444 32.8713 95.9962 32.9405C95.648 33.0097 95.287 32.9742 94.959 32.8385C94.631 32.7028 94.3507 32.473 94.1534 32.1781C93.9562 31.8832 93.8509 31.5366 93.8509 31.1819C93.8509 30.7064 94.04 30.2503 94.3767 29.9141C94.7133 29.5778 95.1699 29.3889 95.646 29.3889Z" fill="#411514"/>
<path d="M73.2961 34.3739C73.6511 34.3739 73.9982 34.4791 74.2934 34.6761C74.5886 34.8731 74.8187 35.1531 74.9545 35.4808C75.0904 35.8084 75.1259 36.1689 75.0567 36.5167C74.9874 36.8645 74.8164 37.184 74.5654 37.4348C74.3143 37.6856 73.9945 37.8563 73.6463 37.9255C73.2981 37.9947 72.9371 37.9592 72.6091 37.8235C72.2811 37.6878 72.0008 37.4579 71.8035 37.1631C71.6063 36.8682 71.501 36.5216 71.501 36.1669C71.501 35.6914 71.6901 35.2353 72.0267 34.8991C72.3634 34.5628 72.82 34.3739 73.2961 34.3739Z" fill="#411514"/>
<path d="M60.7107 27.0638C61.0657 27.0638 61.4128 27.169 61.708 27.366C62.0032 27.563 62.2333 27.8431 62.3691 28.1707C62.505 28.4983 62.5405 28.8589 62.4713 29.2067C62.402 29.5545 62.2311 29.874 61.98 30.1247C61.729 30.3755 61.4091 30.5463 61.0609 30.6154C60.7127 30.6846 60.3517 30.6491 60.0237 30.5134C59.6957 30.3777 59.4154 30.1479 59.2181 29.853C59.0209 29.5582 58.9156 29.2115 58.9156 28.8569C58.9207 28.3829 59.1115 27.9298 59.447 27.5947C59.7826 27.2595 60.2362 27.069 60.7107 27.0638Z" fill="#411514"/>
<path d="M55.1281 46.7674C55.6448 46.7635 56.1509 46.9132 56.5821 47.1975C57.0133 47.4818 57.3501 47.8878 57.5497 48.3638C57.7492 48.8399 57.8024 49.3645 57.7026 49.8708C57.6027 50.3772 57.3543 50.8424 56.989 51.2073C56.6237 51.5722 56.1579 51.8203 55.6509 51.9201C55.144 52.0198 54.6188 51.9666 54.1422 51.7673C53.6657 51.568 53.2592 51.2316 52.9746 50.8009C52.69 50.3702 52.5401 49.8646 52.544 49.3486C52.559 48.6687 52.8362 48.0209 53.3175 47.5401C53.7989 47.0592 54.4475 46.7825 55.1281 46.7674Z" fill="#411514"/>
<path d="M47.7702 46.7674C48.4191 46.824 49.0233 47.1215 49.4634 47.6011C49.9035 48.0808 50.1477 48.7078 50.1477 49.3584C50.1477 50.0091 49.9035 50.6361 49.4634 51.1158C49.0233 51.5954 48.4191 51.8929 47.7702 51.9495C47.4105 51.9808 47.0483 51.9371 46.7064 51.8212C46.3646 51.7052 46.0506 51.5195 45.7844 51.2758C45.5183 51.0322 45.3058 50.7359 45.1604 50.4058C45.015 50.0757 44.9399 49.7191 44.9399 49.3584C44.9399 48.9978 45.015 48.6412 45.1604 48.3111C45.3058 47.981 45.5183 47.6847 45.7844 47.4411C46.0506 47.1974 46.3646 47.0117 46.7064 46.8957C47.0483 46.7798 47.4105 46.7361 47.7702 46.7674Z" fill="#411514"/>
<path d="M40.1756 46.7675C40.6914 46.7675 41.1956 46.9205 41.6242 47.2072C42.0529 47.4939 42.3866 47.9012 42.5831 48.3776C42.7796 48.854 42.83 49.378 42.7279 49.883C42.6258 50.3881 42.3758 50.8515 42.0097 51.2144C41.6436 51.5774 41.1778 51.8235 40.6714 51.9216C40.165 52.0197 39.6408 51.9654 39.1654 51.7655C38.6899 51.5657 38.2846 51.2292 38.0009 50.7989C37.7172 50.3686 37.5678 49.8639 37.5717 49.3486C37.582 48.6639 37.8602 48.0103 38.3469 47.5279C38.8336 47.0455 39.49 46.7725 40.1756 46.7675Z" fill="#411514"/>
<path d="M25.7951 39.3392C26.1548 39.3353 26.5076 39.4383 26.8087 39.6351C27.1097 39.8319 27.3454 40.1136 27.4858 40.4445C27.6262 40.7754 27.6649 41.1404 27.5971 41.4934C27.5294 41.8463 27.3581 42.1711 27.1051 42.4266C26.8521 42.6821 26.5288 42.8567 26.1762 42.9283C25.8236 42.9998 25.4577 42.9651 25.125 42.8285C24.7922 42.6919 24.5076 42.4596 24.3073 42.1611C24.107 41.8626 24 41.5113 24 41.152C24 40.6746 24.1885 40.2165 24.5246 39.8771C24.8606 39.5377 25.3172 39.3444 25.7951 39.3392Z" fill="#411514"/>
<path d="M127.563 58.0773H30.1941C30.0245 58.0992 29.8521 58.0846 29.6886 58.0347C29.5251 57.9848 29.3741 57.9006 29.2457 57.7878C29.1173 57.675 29.0144 57.5362 28.9439 57.3805C28.8735 57.2249 28.837 57.0561 28.837 56.8853C28.837 56.7145 28.8735 56.5456 28.9439 56.39C29.0144 56.2344 29.1173 56.0955 29.2457 55.9827C29.3741 55.8699 29.5251 55.7858 29.6886 55.7358C29.8521 55.6859 30.0245 55.6714 30.1941 55.6932H127.563C127.733 55.6714 127.905 55.6859 128.069 55.7358C128.232 55.7858 128.383 55.8699 128.512 55.9827C128.64 56.0955 128.743 56.2344 128.813 56.39C128.884 56.5456 128.92 56.7145 128.92 56.8853C128.92 57.0561 128.884 57.2249 128.813 57.3805C128.743 57.5362 128.64 57.675 128.512 57.7878C128.383 57.9006 128.232 57.9848 128.069 58.0347C127.905 58.0846 127.733 58.0992 127.563 58.0773Z" fill="#411514"/>
<path d="M127.563 50.5112H70.1004C69.9308 50.533 69.7585 50.5185 69.595 50.4685C69.4314 50.4186 69.2804 50.3345 69.152 50.2217C69.0236 50.1089 68.9207 49.97 68.8503 49.8144C68.7798 49.6588 68.7433 49.4899 68.7433 49.3191C68.7433 49.1483 68.7798 48.9795 68.8503 48.8238C68.9207 48.6682 69.0236 48.5294 69.152 48.4166C69.2804 48.3038 69.4314 48.2196 69.595 48.1697C69.7585 48.1197 69.9308 48.1052 70.1004 48.127H127.563C127.733 48.1052 127.905 48.1197 128.069 48.1697C128.232 48.2196 128.383 48.3038 128.512 48.4166C128.64 48.5294 128.743 48.6682 128.813 48.8238C128.884 48.9795 128.92 49.1483 128.92 49.3191C128.92 49.4899 128.884 49.6588 128.813 49.8144C128.743 49.97 128.64 50.1089 128.512 50.2217C128.383 50.3345 128.232 50.4186 128.069 50.4685C127.905 50.5185 127.733 50.533 127.563 50.5112Z" fill="#411514"/>
<path d="M43.963 36.758C42.976 36.758 42.011 36.4656 41.1903 35.9179C40.3696 35.3701 39.7299 34.5916 39.3522 33.6807C38.9744 32.7698 38.8756 31.7674 39.0682 30.8005C39.2607 29.8335 39.7361 28.9452 40.434 28.248C41.132 27.5509 42.0213 27.0761 42.9894 26.8838C43.9575 26.6914 44.961 26.7901 45.8729 27.1674C46.7849 27.5447 47.5643 28.1837 48.1127 29.0035C48.6611 29.8232 48.9538 30.787 48.9538 31.773C48.9617 32.4298 48.8381 33.0816 48.5901 33.69C48.3421 34.2984 47.9748 34.8511 47.5097 35.3156C47.0447 35.7801 46.4914 36.147 45.8823 36.3947C45.2732 36.6424 44.6206 36.7659 43.963 36.758ZM43.963 29.3888C43.4464 29.3849 42.9402 29.5347 42.509 29.8189C42.0778 30.1032 41.741 30.5092 41.5415 30.9853C41.342 31.4613 41.2887 31.9859 41.3886 32.4922C41.4884 32.9986 41.7368 33.4638 42.1022 33.8287C42.4675 34.1937 42.9333 34.4418 43.4402 34.5415C43.9471 34.6412 44.4723 34.5881 44.9489 34.3888C45.4255 34.1895 45.832 33.8531 46.1166 33.4223C46.4012 32.9916 46.5511 32.4861 46.5472 31.97C46.5321 31.2902 46.255 30.6424 45.7736 30.1615C45.2922 29.6807 44.6437 29.4039 43.963 29.3888Z" fill="#411514"/>
<path d="M113.202 35.5561C111.86 35.5561 110.548 35.1586 109.432 34.4138C108.316 33.669 107.447 32.6104 106.933 31.3719C106.419 30.1334 106.285 28.7705 106.547 27.4557C106.809 26.1409 107.455 24.9332 108.404 23.9852C109.353 23.0373 110.562 22.3918 111.879 22.1302C113.195 21.8687 114.559 22.0029 115.799 22.5159C117.039 23.029 118.099 23.8977 118.845 25.0124C119.59 26.127 119.988 27.4375 119.988 28.778C119.996 29.6703 119.826 30.5553 119.488 31.3812C119.15 32.2071 118.65 32.9574 118.018 33.5884C117.387 34.2194 116.635 34.7184 115.809 35.0562C114.982 35.394 114.096 35.564 113.202 35.5561ZM113.202 24.4038C112.331 24.3999 111.478 24.6548 110.751 25.1361C110.025 25.6174 109.458 26.3035 109.122 27.1071C108.787 27.9108 108.698 28.7959 108.867 29.6501C109.036 30.5043 109.456 31.289 110.072 31.9047C110.689 32.5203 111.474 32.9392 112.329 33.1081C113.185 33.277 114.071 33.1884 114.875 32.8534C115.68 32.5184 116.367 31.9521 116.849 31.2266C117.33 30.501 117.586 29.6487 117.582 28.778C117.566 27.6227 117.1 26.519 116.282 25.7019C115.464 24.8849 114.359 24.4191 113.202 24.4038Z" fill="#411514"/>
<path d="M70.1004 58.0773C69.7905 58.0591 69.4978 57.9293 69.2765 57.7119C69.0553 57.4945 68.9204 57.2043 68.8971 56.8951V41.9401C68.8971 41.6213 69.0239 41.3156 69.2495 41.0902C69.4752 40.8648 69.7813 40.7382 70.1004 40.7382C70.4195 40.7382 70.7256 40.8648 70.9513 41.0902C71.1769 41.3156 71.3037 41.6213 71.3037 41.9401V56.8951C71.3094 57.0536 71.282 57.2115 71.2233 57.3588C71.1646 57.5061 71.0758 57.6396 70.9626 57.7508C70.8494 57.862 70.7143 57.9485 70.5659 58.0047C70.4175 58.0609 70.2589 58.0856 70.1004 58.0773Z" fill="#411514"/>
<path d="M120.758 139H36.9799C34.8796 138.995 32.8653 138.166 31.3709 136.692C29.8766 135.218 29.0218 133.216 28.9908 131.119V48.5211C28.996 46.4063 29.8393 44.3796 31.3365 42.8842C32.8336 41.3888 34.8627 40.5463 36.9799 40.5411H120.758C122.858 40.5721 124.862 41.4259 126.337 42.9186C127.813 44.4112 128.643 46.4232 128.648 48.5211V131.04C128.638 133.134 127.806 135.141 126.331 136.63C124.855 138.118 122.854 138.969 120.758 139ZM36.9799 43.142C36.2435 43.1394 35.5138 43.2824 34.8329 43.5627C34.1521 43.843 33.5334 44.255 33.0127 44.7752C32.492 45.2953 32.0794 45.9132 31.7988 46.5933C31.5182 47.2734 31.375 48.0023 31.3776 48.7378V131.237C31.3776 131.971 31.5227 132.697 31.8045 133.375C32.0862 134.053 32.4992 134.669 33.0197 135.187C33.5402 135.705 34.1579 136.115 34.8375 136.394C35.5171 136.673 36.2451 136.816 36.9799 136.813H120.758C121.492 136.816 122.22 136.673 122.9 136.394C123.58 136.115 124.197 135.705 124.718 135.187C125.238 134.669 125.651 134.053 125.933 133.375C126.215 132.697 126.36 131.971 126.36 131.237V48.4817C126.349 47.0062 125.754 45.595 124.704 44.5573C123.654 43.5195 122.235 42.9397 120.758 42.945H36.9799V43.142Z" fill="#411514"/>
<path d="M117.582 129.05H40.1756C39.864 129.027 39.571 128.893 39.3501 128.672C39.1292 128.452 38.9951 128.159 38.9723 127.848V66.6484C38.9956 66.3392 39.1304 66.049 39.3517 65.8316C39.573 65.6142 39.8657 65.4844 40.1756 65.4662H117.582C117.892 65.4844 118.184 65.6142 118.406 65.8316C118.627 66.049 118.762 66.3392 118.785 66.6484V127.73C118.782 128.059 118.657 128.375 118.436 128.619C118.214 128.862 117.91 129.016 117.582 129.05ZM41.3592 126.449H116.201V68.0474H41.3592V126.449Z" fill="#411514"/>
<path d="M103.832 102.923C103.626 102.93 103.421 102.878 103.243 102.774C103.065 102.669 102.92 102.516 102.826 102.332L89.6492 84.2043H85.4672L80.6737 90.7656C80.5714 90.8993 80.4434 91.0113 80.2971 91.0948C80.1508 91.1784 79.9892 91.2318 79.8219 91.252C79.6546 91.2722 79.485 91.2588 79.323 91.2124C79.161 91.1661 79.0099 91.0879 78.8786 90.9823C78.6143 90.7663 78.4455 90.4553 78.4086 90.1163C78.3717 89.7772 78.4697 89.4372 78.6813 89.1696L83.8694 81.9975C83.9632 81.8134 84.1078 81.66 84.286 81.5553C84.4643 81.4505 84.6688 81.3989 84.8754 81.4064H90.2607C90.4641 81.4026 90.6643 81.4561 90.8387 81.5606C91.0131 81.6651 91.1546 81.8165 91.247 81.9975L104.819 100.736C104.985 101.015 105.056 101.342 105.021 101.665C104.985 101.989 104.845 102.292 104.621 102.529C104.227 102.726 104.03 102.923 103.832 102.923Z" fill="#411514"/>
<path d="M53.9446 102.923C53.8344 102.937 53.7223 102.927 53.6166 102.893C53.5108 102.859 53.414 102.802 53.333 102.726C53.0432 102.54 52.8389 102.247 52.7649 101.911C52.691 101.575 52.7534 101.223 52.9385 100.933L65.8987 78.4115C65.9978 78.2318 66.1436 78.0822 66.3206 77.9781C66.4976 77.8741 66.6994 77.8196 66.9047 77.8204H73.4144C73.6178 77.8167 73.8181 77.8701 73.9925 77.9746C74.1669 78.0791 74.3083 78.2305 74.4007 78.4115L87.3807 100.933C87.5658 101.223 87.6282 101.575 87.5542 101.911C87.4803 102.247 87.276 102.54 86.9861 102.726C86.8431 102.82 86.6826 102.884 86.5141 102.916C86.3456 102.947 86.1726 102.944 86.0053 102.907C85.838 102.871 85.6797 102.801 85.5398 102.702C85.4 102.603 85.2814 102.477 85.191 102.332L72.6057 80.6577H67.4965L54.9309 102.332C54.6822 102.639 54.3328 102.848 53.9446 102.923Z" fill="#411514"/>
<path d="M108.803 102.923H48.9538C48.7842 102.945 48.6119 102.93 48.4484 102.88C48.2848 102.83 48.1338 102.746 48.0054 102.633C47.877 102.52 47.7741 102.382 47.7037 102.226C47.6332 102.07 47.5967 101.902 47.5967 101.731C47.5967 101.56 47.6332 101.391 47.7037 101.235C47.7741 101.08 47.877 100.941 48.0054 100.828C48.1338 100.715 48.2848 100.631 48.4484 100.581C48.6119 100.531 48.7842 100.517 48.9538 100.539H108.803C108.973 100.517 109.145 100.531 109.309 100.581C109.472 100.631 109.623 100.715 109.752 100.828C109.88 100.941 109.983 101.08 110.054 101.235C110.124 101.391 110.161 101.56 110.161 101.731C110.161 101.902 110.124 102.07 110.054 102.226C109.983 102.382 109.88 102.52 109.752 102.633C109.623 102.746 109.472 102.83 109.309 102.88C109.145 102.93 108.973 102.945 108.803 102.923Z" fill="#411514"/>
<path d="M61.3222 121.464H48.7565C48.4467 121.446 48.154 121.316 47.9327 121.098C47.7114 120.881 47.5766 120.591 47.5532 120.282V107.711C47.5766 107.402 47.7114 107.111 47.9327 106.894C48.154 106.677 48.4467 106.547 48.7565 106.529H61.3222C61.632 106.547 61.9248 106.677 62.1461 106.894C62.3673 107.111 62.5022 107.402 62.5255 107.711V120.282C62.7228 120.873 62.1112 121.464 61.3222 121.464ZM50.1374 119.08H60.1189V109.11H50.1374V119.08Z" fill="#411514"/>
<path d="M76.2945 110.312H66.313C65.9938 110.312 65.6878 110.185 65.4621 109.96C65.2364 109.734 65.1096 109.428 65.1096 109.11C65.1096 108.791 65.2364 108.485 65.4621 108.26C65.6878 108.034 65.9938 107.908 66.313 107.908H76.2945C76.604 107.931 76.8945 108.066 77.1122 108.287C77.3298 108.508 77.4598 108.8 77.4781 109.11C77.4864 109.268 77.4616 109.426 77.4053 109.575C77.349 109.723 77.2625 109.858 77.1512 109.971C77.0399 110.084 76.9062 110.173 76.7587 110.231C76.6112 110.29 76.4531 110.317 76.2945 110.312Z" fill="#411514"/>
<path d="M76.2945 115.297H66.313C65.9938 115.297 65.6878 115.17 65.4621 114.945C65.2364 114.719 65.1096 114.414 65.1096 114.095C65.1096 113.776 65.2364 113.47 65.4621 113.245C65.6878 113.019 65.9938 112.893 66.313 112.893H76.2945C76.604 112.916 76.8945 113.051 77.1122 113.272C77.3298 113.493 77.4598 113.785 77.4781 114.095C77.4864 114.253 77.4616 114.411 77.4053 114.56C77.349 114.708 77.2625 114.843 77.1512 114.956C77.0399 115.069 76.9062 115.158 76.7587 115.216C76.6112 115.275 76.4531 115.302 76.2945 115.297Z" fill="#411514"/>
<path d="M76.2945 120.282H66.313C65.9938 120.282 65.6878 120.155 65.4621 119.93C65.2364 119.704 65.1096 119.398 65.1096 119.08C65.1096 118.761 65.2364 118.455 65.4621 118.23C65.6878 118.004 65.9938 117.878 66.313 117.878H76.2945C76.604 117.901 76.8945 118.036 77.1122 118.257C77.3298 118.478 77.4598 118.77 77.4781 119.08C77.4864 119.238 77.4616 119.396 77.4053 119.545C77.349 119.693 77.2625 119.828 77.1512 119.941C77.0399 120.054 76.9062 120.143 76.7587 120.201C76.6112 120.26 76.4531 120.287 76.2945 120.282Z" fill="#411514"/>
<path d="M95.1134 121.464H82.4688C82.159 121.446 81.8662 121.316 81.645 121.098C81.4237 120.881 81.2888 120.591 81.2655 120.282V107.711C81.2888 107.402 81.4237 107.111 81.645 106.894C81.8662 106.677 82.159 106.547 82.4688 106.529H95.1134C95.4232 106.547 95.716 106.677 95.9372 106.894C96.1585 107.111 96.2933 107.402 96.3167 107.711V120.282C96.3224 120.44 96.295 120.598 96.2363 120.745C96.1775 120.893 96.0888 121.026 95.9756 121.137C95.8624 121.249 95.7273 121.335 95.5789 121.391C95.4304 121.447 95.2719 121.472 95.1134 121.464ZM83.8694 119.08H93.8509V109.11H83.8694V119.08Z" fill="#411514"/>
<path d="M110.007 110.312H100.025C99.7061 110.312 99.4 110.185 99.1744 109.96C98.9487 109.734 98.8219 109.428 98.8219 109.11C98.8219 108.791 98.9487 108.485 99.1744 108.26C99.4 108.034 99.7061 107.908 100.025 107.908H110.007C110.318 107.931 110.611 108.064 110.832 108.285C111.053 108.506 111.187 108.798 111.21 109.11C111.216 109.269 111.188 109.428 111.13 109.576C111.071 109.724 110.983 109.859 110.87 109.972C110.757 110.084 110.622 110.173 110.474 110.231C110.325 110.29 110.166 110.317 110.007 110.312Z" fill="#411514"/>
<path d="M110.007 115.297H100.025C99.7061 115.297 99.4 115.17 99.1744 114.945C98.9487 114.719 98.8219 114.414 98.8219 114.095C98.8219 113.776 98.9487 113.47 99.1744 113.245C99.4 113.019 99.7061 112.893 100.025 112.893H110.007C110.318 112.916 110.611 113.05 110.832 113.27C111.053 113.491 111.187 113.784 111.21 114.095C111.216 114.254 111.188 114.413 111.13 114.561C111.071 114.709 110.983 114.844 110.87 114.957C110.757 115.07 110.622 115.158 110.474 115.216C110.325 115.275 110.166 115.302 110.007 115.297Z" fill="#411514"/>
<path d="M110.007 120.282H100.025C99.7061 120.282 99.4 120.155 99.1744 119.93C98.9487 119.704 98.8219 119.398 98.8219 119.08C98.8219 118.761 98.9487 118.455 99.1744 118.23C99.4 118.004 99.7061 117.878 100.025 117.878H110.007C110.318 117.901 110.611 118.035 110.832 118.255C111.053 118.476 111.187 118.769 111.21 119.08C111.216 119.239 111.188 119.398 111.13 119.546C111.071 119.694 110.983 119.829 110.87 119.942C110.757 120.055 110.622 120.143 110.474 120.201C110.325 120.26 110.166 120.287 110.007 120.282Z" fill="#411514"/>
</svg>
