<svg width="40" height="40" viewBox="0 0 40 40" fill="none" xmlns="http://www.w3.org/2000/svg">
<circle cx="19.75" cy="20.25" r="19.75" fill="#E02720"/>
<path d="M10 26.9919L18.0453 15.4421M17.1174 16.7736L20.7287 21.9573M21.5341 23.1134L22.6099 24.6578C23.204 25.5104 23.204 26.8962 22.6099 27.7467C22.0159 28.5993 21.0523 28.5993 20.4583 27.7467C19.8642 26.8931 19.8642 25.5084 20.4583 24.6578L21.5341 23.1134ZM21.5341 23.1134L17.9227 17.9284M28.6514 12.8944L20.6061 24.4442M17.1184 16.7728L16.0425 15.2283C15.4485 14.3757 15.4485 12.99 16.0425 12.1395C16.6366 11.2868 17.6002 11.2868 18.1942 12.1395C18.7883 12.9931 18.7883 14.3778 18.1942 15.2283L17.1184 16.7728Z" stroke="#F2F3F3" stroke-width="1.5" stroke-linecap="round" stroke-linejoin="round"/>
</svg>
