<svg width="34" height="35" viewBox="0 0 34 35" fill="none" xmlns="http://www.w3.org/2000/svg">
<circle cx="17" cy="17.5" r="17" fill="black"/>
<path d="M9.12207 23.7862L16.0471 13.8446M15.2485 14.9907L18.3569 19.4527M19.0502 20.4477L19.9762 21.7771C20.4875 22.511 20.4875 23.7038 19.9762 24.4359C19.4649 25.1698 18.6355 25.1698 18.1241 24.4359C17.6128 23.7012 17.6128 22.5093 18.1241 21.7771L19.0502 20.4477ZM19.0502 20.4477L15.9416 15.9848M25.1764 11.6517L18.2514 21.5933M15.2493 14.99L14.3232 13.6606C13.8119 12.9267 13.8119 11.734 14.3232 11.0018C14.8346 10.2679 15.664 10.2679 16.1753 11.0018C16.6867 11.7366 16.6867 12.9285 16.1753 13.6606L15.2493 14.99Z" stroke="#F2F3F3" stroke-width="1.5" stroke-linecap="round" stroke-linejoin="round"/>
</svg>
