<svg width="89" height="66" viewBox="0 0 89 66" fill="none" xmlns="http://www.w3.org/2000/svg">
<path d="M27.875 0.708252C30.8145 0.708252 33.6336 1.87596 35.7121 3.95448C37.7906 6.03301 38.9583 8.8521 38.9583 11.7916V45.0416C38.9583 62.387 29.8146 73.8195 12.5966 78.1253C11.8888 78.308 11.1517 78.3489 10.428 78.2455C9.70428 78.1421 9.00816 77.8966 8.37975 77.523C7.75134 77.1494 7.20306 76.6552 6.7665 76.0688C6.32994 75.4823 6.01372 74.8154 5.83606 74.1062C5.65841 73.397 5.62283 72.6597 5.73137 71.9368C5.83991 71.2138 6.09043 70.5194 6.4685 69.8937C6.84656 69.268 7.3447 68.7233 7.93422 68.2909C8.52373 67.8585 9.19297 67.5471 9.90338 67.3745C22.2447 64.2878 27.875 57.2499 27.875 45.0416V39.4999H11.25C8.45381 39.5008 5.76062 38.4447 3.7103 36.5435C1.65999 34.6422 0.404095 32.0362 0.194381 29.2478L0.166672 28.4166V11.7916C0.166672 8.8521 1.33438 6.03301 3.4129 3.95448C5.49143 1.87596 8.31052 0.708252 11.25 0.708252H27.875ZM77.75 0.708252C80.6895 0.708252 83.5086 1.87596 85.5871 3.95448C87.6656 6.03301 88.8333 8.8521 88.8333 11.7916V45.0416C88.8333 62.387 79.6896 73.8195 62.4716 78.1253C61.7638 78.308 61.0267 78.3489 60.303 78.2455C59.5793 78.1421 58.8832 77.8966 58.2547 77.523C57.6263 77.1494 57.0781 76.6552 56.6415 76.0688C56.2049 75.4823 55.8887 74.8154 55.7111 74.1062C55.5334 73.397 55.4978 72.6597 55.6064 71.9368C55.7149 71.2138 55.9654 70.5194 56.3435 69.8937C56.7216 69.268 57.2197 68.7233 57.8092 68.2909C58.3987 67.8585 59.068 67.5471 59.7784 67.3745C72.1197 64.2878 77.75 57.2499 77.75 45.0416V39.4999H61.125C58.3288 39.5008 55.6356 38.4447 53.5853 36.5435C51.535 34.6422 50.2791 32.0362 50.0694 29.2478L50.0417 28.4166V11.7916C50.0417 8.8521 51.2094 6.03301 53.2879 3.95448C55.3664 1.87596 58.1855 0.708252 61.125 0.708252H77.75Z" fill="#591715"/>
</svg>
