<svg width="160" height="160" viewBox="0 0 160 160" fill="none" xmlns="http://www.w3.org/2000/svg">
<path d="M117.62 79.3788V100.549L99.4023 105.903V84.732L117.62 79.3788Z" fill="#FFA8A8"/>
<path d="M134.937 45.9597C135.332 45.9597 135.718 46.0773 136.046 46.2976C136.375 46.5178 136.631 46.8309 136.782 47.1973C136.933 47.5636 136.973 47.9666 136.896 48.3555C136.819 48.7444 136.628 49.1016 136.349 49.382C136.07 49.6623 135.714 49.8533 135.326 49.9306C134.939 50.008 134.537 49.9683 134.172 49.8165C133.807 49.6648 133.495 49.4078 133.276 49.0782C133.057 48.7485 132.939 48.3609 132.939 47.9644C132.939 47.4327 133.15 46.9228 133.524 46.5469C133.899 46.1709 134.407 45.9597 134.937 45.9597Z" fill="#411514"/>
<path d="M134.937 110.066C135.332 110.066 135.718 110.184 136.046 110.404C136.375 110.624 136.631 110.938 136.782 111.304C136.933 111.67 136.973 112.073 136.896 112.462C136.819 112.851 136.628 113.208 136.349 113.489C136.07 113.769 135.714 113.96 135.326 114.037C134.939 114.115 134.537 114.075 134.172 113.923C133.807 113.771 133.495 113.514 133.276 113.185C133.057 112.855 132.939 112.467 132.939 112.071C132.939 111.539 133.15 111.029 133.524 110.653C133.899 110.277 134.407 110.066 134.937 110.066Z" fill="#411514"/>
<path d="M109.85 131.083C110.245 131.083 110.631 131.2 110.959 131.42C111.288 131.641 111.544 131.954 111.695 132.32C111.846 132.686 111.886 133.09 111.809 133.478C111.732 133.867 111.541 134.225 111.262 134.505C110.983 134.785 110.627 134.976 110.239 135.054C109.852 135.131 109.45 135.091 109.085 134.939C108.72 134.788 108.408 134.531 108.189 134.201C107.969 133.871 107.852 133.484 107.852 133.087C107.852 132.556 108.063 132.046 108.437 131.67C108.812 131.294 109.32 131.083 109.85 131.083Z" fill="#411514"/>
<path d="M99.4022 84.732V105.903L80.9875 100.549V79.3788L99.4022 84.732Z" fill="#FFA8A8"/>
<path d="M99.4022 52.8771V74.0477L80.9875 79.3789V58.2083L99.4022 52.8771Z" fill="#FFA8A8"/>
<path d="M80.9876 79.3788V100.549L62.7705 105.903V84.732L80.9876 79.3788Z" fill="#FFA8A8"/>
<path d="M80.9876 58.2083V79.3789L62.7705 74.0477V52.8771L80.9876 58.2083Z" fill="#FFA8A8"/>
<path d="M62.7704 84.732V105.903L44.3557 100.549V79.3788L62.7704 84.732Z" fill="#FFA8A8"/>
<path d="M51.6645 126.853C52.0595 126.853 52.4457 126.97 52.7741 127.191C53.1026 127.411 53.3586 127.724 53.5098 128.09C53.6609 128.457 53.7005 128.86 53.6234 129.249C53.5464 129.638 53.3561 129.995 53.0768 130.275C52.7975 130.556 52.4416 130.746 52.0541 130.824C51.6667 130.901 51.2651 130.861 50.9002 130.71C50.5352 130.558 50.2233 130.301 50.0038 129.971C49.7843 129.642 49.6672 129.254 49.6672 128.858C49.6729 128.328 49.8852 127.821 50.2585 127.446C50.6318 127.072 51.1365 126.859 51.6645 126.853Z" fill="#411514"/>
<path d="M44.8167 21C45.2117 21 45.5978 21.1176 45.9263 21.3379C46.2548 21.5581 46.5107 21.8712 46.6619 22.2375C46.8131 22.6039 46.8526 23.0069 46.7756 23.3958C46.6985 23.7847 46.5083 24.1419 46.229 24.4222C45.9496 24.7026 45.5937 24.8935 45.2063 24.9709C44.8189 25.0482 44.4173 25.0085 44.0523 24.8568C43.6874 24.7051 43.3754 24.4481 43.156 24.1185C42.9365 23.7888 42.8194 23.4012 42.8194 23.0047C42.8194 22.473 43.0298 21.9631 43.4043 21.5872C43.7789 21.2112 44.2869 21 44.8167 21Z" fill="#411514"/>
<path d="M25.2607 40.3862C25.6557 40.3862 26.0419 40.5038 26.3704 40.7241C26.6988 40.9444 26.9548 41.2575 27.106 41.6238C27.2571 41.9901 27.2967 42.3932 27.2196 42.782C27.1426 43.1709 26.9523 43.5281 26.673 43.8085C26.3937 44.0888 26.0378 44.2798 25.6504 44.3571C25.2629 44.4345 24.8613 44.3948 24.4964 44.243C24.1314 44.0913 23.8195 43.8344 23.6 43.5047C23.3805 43.175 23.2634 42.7874 23.2634 42.3909C23.2634 41.8593 23.4738 41.3494 23.8484 40.9734C24.223 40.5974 24.731 40.3862 25.2607 40.3862Z" fill="#411514"/>
<path d="M62.7704 86.0759C62.4564 86.0666 62.1549 85.9503 61.9155 85.7461C61.6761 85.5419 61.5132 85.2619 61.4535 84.9524C61.3616 84.5987 61.3998 84.2236 61.5611 83.8959C61.7223 83.5682 61.9958 83.3097 62.3314 83.168L80.7681 77.8367C81.1205 77.7446 81.4941 77.7829 81.8206 77.9447C82.1472 78.1066 82.4046 78.3811 82.5459 78.7179C82.6316 79.0742 82.5881 79.4494 82.4232 79.7764C82.2583 80.1034 81.9828 80.3608 81.646 80.5024L63.2313 85.8335C63.1116 85.9672 62.948 86.0532 62.7704 86.0759Z" fill="#411514"/>
<path d="M62.7704 107.246C62.4564 107.237 62.1549 107.121 61.9155 106.917C61.6761 106.712 61.5132 106.432 61.4535 106.123C61.3616 105.769 61.3998 105.394 61.5611 105.066C61.7223 104.739 61.9958 104.48 62.3314 104.338L80.7681 99.0513C81.1205 98.9592 81.4941 98.9975 81.8206 99.1593C82.1472 99.3212 82.4046 99.5957 82.5459 99.9325C82.6316 100.289 82.5881 100.664 82.4232 100.991C82.2583 101.318 81.9828 101.575 81.646 101.717L62.9899 107.29L62.7704 107.246Z" fill="#411514"/>
<path d="M62.7704 107.246H62.3754L43.9387 101.893C43.6325 101.824 43.3581 101.655 43.1592 101.411C42.9603 101.168 42.8484 100.864 42.8413 100.549V79.3789C42.8488 78.9702 43.0049 78.5784 43.2802 78.2774C43.7192 78.0571 44.1801 77.8368 44.3996 78.0571L62.8143 83.3883C63.1228 83.4563 63.4 83.6252 63.6026 83.8684C63.8052 84.1115 63.9216 84.4153 63.9337 84.7321V105.903C63.9256 106.318 63.7699 106.716 63.4947 107.026C63.3989 107.116 63.2837 107.183 63.1581 107.221C63.0326 107.259 62.8999 107.268 62.7704 107.246ZM45.6726 99.448L61.234 103.854V85.6353L45.6726 81.2294V99.514V99.448Z" fill="#411514"/>
<path d="M44.3557 80.7226C44.0378 80.7183 43.7312 80.6042 43.4873 80.3996C43.2435 80.195 43.0773 79.9123 43.0168 79.5991C42.9261 79.2484 42.965 78.8767 43.1265 78.5526C43.2879 78.2286 43.5608 77.9743 43.8947 77.8367L62.3753 72.4835C62.7204 72.3894 63.0882 72.431 63.4038 72.5998C63.7194 72.7685 63.959 73.0517 64.0738 73.3916C64.1885 73.7316 64.1698 74.1026 64.0214 74.4292C63.873 74.7558 63.6061 75.0132 63.2752 75.1491L44.8166 80.5023C44.5751 80.7226 44.5751 80.7226 44.3557 80.7226Z" fill="#411514"/>
<path d="M99.4022 107.246C99.0882 107.237 98.7867 107.121 98.5473 106.917C98.3079 106.712 98.145 106.433 98.0853 106.123C97.9934 105.769 98.0316 105.394 98.1929 105.067C98.3541 104.739 98.6276 104.48 98.9632 104.339L116.281 99.448V81.1633L99.6875 85.8336C99.3324 85.9533 98.9445 85.9266 98.609 85.7593C98.2736 85.592 98.0181 85.2978 97.8987 84.9414C97.7794 84.585 97.806 84.1956 97.9727 83.8589C98.1394 83.5222 98.4326 83.2657 98.7876 83.1459L117.246 77.8368C117.428 77.7476 117.634 77.7208 117.832 77.7606C118.03 77.8005 118.21 77.9046 118.344 78.0571C118.805 78.2774 118.805 78.718 118.805 79.1586V100.549C118.793 100.866 118.676 101.17 118.473 101.413C118.271 101.656 117.994 101.825 117.685 101.893L99.6875 107.246H99.4022Z" fill="#411514"/>
<path d="M99.4023 107.246H98.9634L80.5487 101.893C80.2366 101.833 79.955 101.666 79.7511 101.421C79.5472 101.176 79.4336 100.868 79.4293 100.549V79.3789C79.4368 78.9702 79.5929 78.5784 79.8683 78.2774C80.3072 78.0571 80.7682 77.8368 80.9876 78.0571L99.4023 83.3883C99.7108 83.4563 99.988 83.6252 100.191 83.8684C100.393 84.1115 100.51 84.4153 100.522 84.7321V105.903C100.514 106.318 100.358 106.716 100.083 107.026C99.9927 107.111 99.8849 107.175 99.7673 107.213C99.6496 107.251 99.5249 107.263 99.4023 107.246ZM82.3045 99.448L97.866 103.854V85.6353L82.3045 81.2294V99.514V99.448Z" fill="#411514"/>
<path d="M117.619 80.7226H117.246L99.0292 75.3694C98.6653 75.2584 98.3604 75.0069 98.1813 74.6702C98.0023 74.3334 97.9638 73.9391 98.0744 73.574C98.185 73.2088 98.4356 72.9027 98.7711 72.723C99.1065 72.5433 99.4994 72.5047 99.8632 72.6157L118.278 77.9689C118.454 78.0263 118.617 78.118 118.758 78.2389C118.899 78.3598 119.014 78.5074 119.098 78.6732C119.181 78.8391 119.231 79.0199 119.245 79.2053C119.259 79.3906 119.236 79.5769 119.178 79.7533C119.021 80.0345 118.796 80.271 118.524 80.4406C118.251 80.6102 117.94 80.7073 117.619 80.7226Z" fill="#411514"/>
<path d="M80.9876 80.7226C80.6697 80.7183 80.3631 80.6042 80.1192 80.3996C79.8754 80.195 79.7092 79.9123 79.6487 79.5991C79.5594 79.2457 79.6015 78.8718 79.7671 78.5473C79.9328 78.2229 80.2106 77.9702 80.5486 77.8367L97.8659 72.9241V54.6394L81.207 59.3978C80.852 59.4886 80.4762 59.4471 80.1493 59.281C79.8224 59.1149 79.5666 58.8355 79.4292 58.4946C79.3385 58.1439 79.3775 57.7721 79.5389 57.4481C79.7003 57.1241 79.9732 56.8697 80.3072 56.7322L98.9633 51.5993C99.1502 51.5184 99.3572 51.4962 99.5569 51.5355C99.7567 51.5749 99.94 51.6739 100.083 51.8196C100.522 52.0399 100.522 52.4804 100.522 52.9431V74.1137C100.512 74.4288 100.397 74.7315 100.193 74.9717C99.9896 75.212 99.7107 75.3755 99.4023 75.4354L80.9876 80.7887V80.7226Z" fill="#411514"/>
<path d="M80.9876 80.7227H80.5486L62.1119 75.3694C61.8053 75.3059 61.5286 75.1413 61.3257 74.9018C61.1229 74.6623 61.0057 74.3617 60.9926 74.0477V52.7889C61.0027 52.3702 61.1669 51.97 61.4535 51.6654C61.8925 51.4451 62.3314 51.2248 62.5509 51.4451L80.9876 56.7984C81.2919 56.8627 81.5658 57.0281 81.765 57.268C81.9641 57.5078 82.0768 57.808 82.085 58.1201V79.2907C82.0808 79.7066 81.9246 80.1064 81.646 80.4142C81.646 80.7227 81.4265 80.7227 80.9876 80.7227ZM64.1093 73.1444L79.6487 77.5504V59.3979L64.1093 54.9919V73.2546V73.1444Z" fill="#411514"/>
<path d="M99.4023 54.1989H98.9634L80.9876 49.088L62.99 54.1989C62.649 54.2775 62.2911 54.2255 61.9863 54.0532C61.6815 53.8809 61.4517 53.6007 61.3419 53.2673C61.2321 52.9339 61.2502 52.5714 61.3926 52.2507C61.5351 51.93 61.7916 51.6742 62.112 51.5333L80.5487 46.1801H81.2071L99.6877 51.5333C100.039 51.6537 100.329 51.909 100.494 52.2435C100.658 52.5779 100.684 52.9642 100.566 53.3177C100.522 53.9786 99.8633 54.1989 99.4023 54.1989Z" fill="#411514"/>
<path d="M80.0877 130.862C69.9428 130.862 60.0258 127.843 51.5906 122.186C43.1555 116.529 36.5811 108.488 32.6988 99.0807C28.8165 89.6733 27.8007 79.3217 29.7799 69.3349C31.7591 59.348 36.6443 50.1746 43.8178 42.9745C50.9913 35.7744 60.1309 30.871 70.0809 28.8845C80.0308 26.898 90.3442 27.9176 99.7168 31.8142C109.089 35.7109 117.1 42.3097 122.737 50.7761C128.373 59.2425 131.381 69.1963 131.381 79.3788C131.381 93.0331 125.977 106.128 116.358 115.783C106.738 125.438 93.6916 130.862 80.0877 130.862ZM80.0877 30.5829C70.4672 30.5829 61.0627 33.4466 53.0638 38.8117C45.0649 44.1769 38.8309 51.8025 35.1503 60.7241C31.4697 69.6457 30.5078 79.4625 32.3862 88.9328C34.2647 98.4032 38.8992 107.102 45.7035 113.928C52.5078 120.755 61.1762 125.402 70.6124 127.283C80.0487 129.165 89.8288 128.195 98.7157 124.496C107.603 120.798 115.197 114.538 120.539 106.507C125.881 98.4756 128.73 89.035 128.725 79.3788C128.728 72.9682 127.472 66.6198 125.028 60.6969C122.585 54.774 119.002 49.3926 114.485 44.8606C109.968 40.3287 104.604 36.735 98.7023 34.2851C92.8001 31.8352 86.4747 30.5771 80.0877 30.5829Z" fill="#411514"/>
<path d="M130.042 37.7206C128.684 37.7075 127.36 37.2919 126.236 36.5259C125.112 35.7598 124.239 34.6776 123.726 33.415C123.214 32.1525 123.084 30.7661 123.354 29.4298C123.624 28.0935 124.281 26.8671 125.243 25.9046C126.205 24.942 127.429 24.2863 128.761 24.0197C130.093 23.7532 131.474 23.8877 132.73 24.4064C133.986 24.9251 135.062 25.8049 135.822 26.9351C136.581 28.0654 136.991 29.3958 137 30.7592C137.003 31.6761 136.825 32.5844 136.476 33.4318C136.127 34.2791 135.614 35.0487 134.967 35.696C134.32 36.3433 133.552 36.8555 132.707 37.203C131.861 37.5505 130.956 37.7264 130.042 37.7206ZM130.042 26.5735C129.208 26.578 128.394 26.8309 127.703 27.3003C127.012 27.7696 126.475 28.4344 126.161 29.2102C125.846 29.986 125.769 30.838 125.937 31.6582C126.106 32.4784 126.513 33.2299 127.108 33.8174C127.703 34.4049 128.458 34.8021 129.277 34.9585C130.097 35.1149 130.945 35.0236 131.713 34.696C132.481 34.3685 133.134 33.8195 133.591 33.1187C134.048 32.4178 134.287 31.5966 134.278 30.7592C134.267 29.6412 133.815 28.5733 133.021 27.789C132.227 27.0047 131.156 26.5677 130.042 26.5735Z" fill="#411514"/>
<path d="M31.4721 138C29.7999 138.004 28.164 137.511 26.7715 136.581C25.379 135.652 24.2925 134.329 23.6495 132.78C23.0066 131.23 22.8361 129.524 23.1597 127.877C23.4833 126.231 24.2863 124.717 25.4672 123.529C26.6481 122.341 28.1537 121.531 29.7935 121.202C31.4333 120.873 33.1334 121.039 34.6788 121.681C36.2241 122.322 37.5451 123.409 38.4746 124.804C39.4041 126.199 39.9003 127.84 39.9003 129.519C39.9032 130.631 39.6873 131.734 39.265 132.763C38.8428 133.791 38.2224 134.727 37.4395 135.514C36.6566 136.302 35.7265 136.927 34.7025 137.354C33.6785 137.78 32.5807 138 31.4721 138ZM31.4721 123.967C30.3729 123.967 29.2984 124.294 28.3848 124.908C27.4711 125.521 26.7594 126.393 26.3398 127.413C25.9201 128.433 25.8114 129.554 26.0275 130.636C26.2435 131.718 26.7746 132.711 27.5534 133.489C28.3322 134.268 29.3237 134.797 30.4023 135.01C31.4809 135.222 32.5981 135.109 33.6124 134.683C34.6266 134.258 35.4924 133.54 36.0999 132.621C36.7074 131.702 37.0294 130.622 37.025 129.519C37.0309 128.786 36.8911 128.06 36.6139 127.382C36.3366 126.704 35.9275 126.089 35.4104 125.572C34.8933 125.055 34.2786 124.647 33.6024 124.371C32.9261 124.096 32.2019 123.958 31.4721 123.967Z" fill="#411514"/>
</svg>
