<svg width="160" height="160" viewBox="0 0 160 160" fill="none" xmlns="http://www.w3.org/2000/svg">
<path d="M49.9297 22C50.3002 22 50.6623 22.1098 50.9703 22.3156C51.2783 22.5214 51.5184 22.8139 51.6601 23.1561C51.8019 23.4983 51.839 23.8749 51.7667 24.2382C51.6944 24.6015 51.516 24.9352 51.2541 25.1971C50.9922 25.459 50.6584 25.6374 50.2951 25.7097C49.9318 25.7819 49.5552 25.7448 49.213 25.6031C48.8707 25.4613 48.5782 25.2213 48.3724 24.9133C48.1666 24.6053 48.0568 24.2432 48.0568 23.8728C48.0568 23.3761 48.2541 22.8998 48.6053 22.5485C48.9566 22.1973 49.433 22 49.9297 22Z" fill="#411514"/>
<path d="M49.9297 135.254C50.3002 135.254 50.6623 135.364 50.9703 135.57C51.2783 135.776 51.5184 136.068 51.6601 136.411C51.8019 136.753 51.839 137.129 51.7667 137.493C51.6944 137.856 51.516 138.19 51.2541 138.452C50.9922 138.713 50.6584 138.892 50.2951 138.964C49.9318 139.036 49.5552 138.999 49.213 138.857C48.8707 138.716 48.5782 138.476 48.3724 138.168C48.1666 137.86 48.0568 137.498 48.0568 137.127C48.0568 136.631 48.2541 136.154 48.6053 135.803C48.9566 135.452 49.433 135.254 49.9297 135.254Z" fill="#411514"/>
<path d="M29.1008 42.8069C29.4712 42.8069 29.8333 42.9167 30.1413 43.1225C30.4494 43.3283 30.6894 43.6208 30.8312 43.963C30.9729 44.3052 31.01 44.6818 30.9378 45.0451C30.8655 45.4084 30.6871 45.7421 30.4252 46.004C30.1632 46.2659 29.8295 46.4443 29.4662 46.5165C29.1029 46.5888 28.7263 46.5517 28.384 46.41C28.0418 46.2682 27.7493 46.0282 27.5435 45.7202C27.3377 45.4122 27.2278 45.0501 27.2278 44.6797C27.2278 44.183 27.4252 43.7066 27.7764 43.3554C28.1277 43.0042 28.604 42.8069 29.1008 42.8069Z" fill="#411514"/>
<path d="M133.266 114.427C133.637 114.427 133.999 114.537 134.307 114.743C134.615 114.948 134.855 115.241 134.997 115.583C135.138 115.925 135.175 116.302 135.103 116.665C135.031 117.028 134.852 117.362 134.591 117.624C134.329 117.886 133.995 118.064 133.632 118.137C133.268 118.209 132.892 118.172 132.549 118.03C132.207 117.888 131.915 117.648 131.709 117.34C131.503 117.032 131.393 116.67 131.393 116.3C131.393 115.803 131.591 115.327 131.942 114.975C132.293 114.624 132.769 114.427 133.266 114.427Z" fill="#411514"/>
<path d="M121.555 132.538C122.052 132.538 122.528 132.735 122.879 133.086C123.231 133.437 123.428 133.914 123.428 134.411C123.428 134.907 123.231 135.384 122.879 135.735C122.528 136.086 122.052 136.283 121.555 136.283C121.058 136.283 120.582 136.086 120.231 135.735C119.879 135.384 119.682 134.907 119.682 134.411C119.682 133.914 119.879 133.437 120.231 133.086C120.582 132.735 121.058 132.538 121.555 132.538Z" fill="#411514"/>
<path d="M112.375 23.2349C112.751 23.2308 113.119 23.3383 113.433 23.5439C113.747 23.7495 113.993 24.0437 114.139 24.3893C114.286 24.7349 114.326 25.1162 114.256 25.4849C114.185 25.8535 114.006 26.1928 113.742 26.4596C113.478 26.7265 113.141 26.9089 112.773 26.9836C112.405 27.0584 112.023 27.0221 111.676 26.8794C111.329 26.7367 111.032 26.4941 110.823 26.1823C110.614 25.8705 110.503 25.5036 110.503 25.1283C110.502 24.6296 110.699 24.1511 111.05 23.7966C111.4 23.4421 111.877 23.2403 112.375 23.2349Z" fill="#411514"/>
<path d="M83.2314 81.7451V92.9821C78.5887 93.0045 74.0203 94.1483 69.9149 96.3161C68.538 91.6383 67.8448 86.786 67.8567 81.9098L83.252 81.704L83.2314 81.7451Z" fill="#FFA8A8"/>
<path d="M98.6473 81.7451H112.684C112.669 89.2892 109.716 96.5307 104.451 101.935C102.139 99.5909 99.4715 97.6254 96.5479 96.1103C97.9248 91.4455 98.6317 86.6088 98.6473 81.7451Z" fill="#FFA8A8"/>
<path d="M83.2314 52.3973C87.2036 52.4119 91.1317 53.2309 94.7788 54.8049C98.4258 56.379 101.716 58.6754 104.451 61.5557C102.139 63.8993 99.4715 65.8648 96.5479 67.3799C93.8517 58.4274 88.8503 52.3973 83.2314 52.3973Z" fill="#FFA8A8"/>
<path d="M98.6473 81.7451H83.2314V70.5081C87.881 70.489 92.4569 69.3451 96.5685 67.1741C97.923 71.9135 98.6224 76.816 98.6473 81.7451Z" fill="#FFA8A8"/>
<path d="M83.2314 52.3973V70.5082C78.5887 70.4858 74.0203 69.342 69.9149 67.1741C72.4053 58.4274 77.4067 52.3973 83.2314 52.3973Z" fill="#FFA8A8"/>
<path d="M69.709 67.3799C68.3321 72.0577 67.6389 76.91 67.6508 81.7862H53.6757C53.6644 74.2607 56.5711 67.0239 61.785 61.5968C64.1084 63.9261 66.7821 65.8774 69.709 67.3799Z" fill="#FFA8A8"/>
<path d="M83.2314 92.9821C87.881 93.0011 92.4569 94.145 96.5685 96.3161C93.8517 105.269 88.8503 111.319 83.2314 111.319V92.9821Z" fill="#FFA8A8"/>
<path d="M69.709 96.316C72.4052 105.269 77.4067 111.319 83.0255 111.319C79.0478 111.308 75.1138 110.489 71.4624 108.911C67.8111 107.333 64.5186 105.03 61.7849 102.14C64.0907 99.7795 66.7675 97.812 69.709 96.316Z" fill="#FFA8A8"/>
<path d="M83.2314 112.554C77.0568 112.554 71.582 106.524 68.6593 96.7277C67.3165 91.9161 66.6243 86.9463 66.6011 81.9509C66.524 76.9489 67.2182 71.9648 68.6593 67.1742C71.582 57.3984 77.2008 51.3478 83.2314 51.3478C89.2619 51.3478 94.9013 57.3984 97.8034 67.1742C99.1448 71.9861 99.837 76.9557 99.8616 81.9509C99.9551 86.954 99.2606 91.9406 97.8034 96.7277C94.9013 106.318 89.2825 112.554 83.2314 112.554ZM83.2314 53.6322C78.2299 53.6322 73.6607 59.0449 71.1703 67.5858C69.8778 72.1929 69.2472 76.9604 69.2974 81.7451C69.2603 86.529 69.8907 91.2947 71.1703 95.9045C73.6607 104.651 78.4563 109.858 83.2314 109.858C88.0064 109.858 92.8226 104.445 95.313 95.9045C96.6069 91.2977 97.2375 86.5299 97.1859 81.7451C97.223 76.9612 96.5926 72.1955 95.313 67.5858C92.8226 59.0449 87.9858 53.5911 83.2314 53.5911V53.6322Z" fill="#411514"/>
<path d="M83.2313 71.9694C78.3944 71.9252 73.6304 70.7853 69.2974 68.6353C66.1756 67.1901 63.3759 65.1325 61.0646 62.5847C60.9416 62.4617 60.844 62.3157 60.7775 62.155C60.7109 61.9944 60.6767 61.8222 60.6767 61.6483C60.6767 61.4744 60.7109 61.3021 60.7775 61.1415C60.844 60.9808 60.9416 60.8348 61.0646 60.7118C61.1875 60.5889 61.3336 60.4913 61.4942 60.4248C61.6549 60.3582 61.8271 60.324 62.001 60.324C62.175 60.324 62.3472 60.3582 62.5079 60.4248C62.6685 60.4913 62.8146 60.5889 62.9375 60.7118C65.1392 62.9494 67.6647 64.8434 70.4294 66.3303C74.4078 68.4195 78.8407 69.4941 83.3343 69.4585C87.1532 69.4636 90.9331 68.6907 94.4434 67.1868C97.9537 65.683 101.121 63.4799 103.752 60.7118C104 60.4635 104.337 60.324 104.688 60.324C105.039 60.324 105.376 60.4635 105.625 60.7118C105.873 60.9602 106.012 61.297 106.012 61.6483C106.012 61.9995 105.873 62.3363 105.625 62.5847C103.298 65.0709 100.544 67.1202 97.4947 68.6353C93.0182 70.7102 88.1638 71.8449 83.2313 71.9694Z" fill="#411514"/>
<path d="M104.451 103.396C104.292 103.393 104.136 103.354 103.993 103.283C103.851 103.212 103.726 103.11 103.628 102.984C101.48 100.721 98.9775 98.8232 96.2186 97.3657C92.2374 95.2837 87.8064 94.2096 83.3137 94.2375C78.8241 94.2365 74.3995 95.3091 70.4088 97.3657C67.6238 98.8596 65.0721 100.752 62.8346 102.984C62.5862 103.233 62.2494 103.372 61.8981 103.372C61.5469 103.372 61.21 103.233 60.9617 102.984C60.7133 102.736 60.5738 102.399 60.5738 102.048C60.5738 101.697 60.7133 101.36 60.9617 101.111C63.2394 98.5796 65.9954 96.5233 69.071 95.0607C73.3863 92.8446 78.1745 91.7076 83.0255 91.7472C87.8791 91.6842 92.673 92.8225 96.9801 95.0607C100.016 96.5886 102.76 98.6365 105.089 101.111C105.301 101.377 105.417 101.708 105.417 102.048C105.417 102.388 105.301 102.718 105.089 102.984C105.089 103.19 104.678 103.396 104.451 103.396Z" fill="#411514"/>
<path d="M112.684 83.2064H53.6757C53.3491 83.1868 53.041 83.0483 52.8096 82.817C52.5783 82.5856 52.4397 82.2775 52.4202 81.951C52.444 81.6259 52.5839 81.3202 52.8144 81.0898C53.0449 80.8593 53.3506 80.7194 53.6757 80.6956H112.375C112.701 80.7194 113.006 80.8593 113.237 81.0898C113.467 81.3202 113.607 81.6259 113.631 81.951C113.661 82.2412 113.581 82.5322 113.405 82.7652C113.229 82.9982 112.972 83.1559 112.684 83.2064Z" fill="#411514"/>
<path d="M83.2314 112.554C82.9081 112.535 82.6026 112.399 82.3718 112.172C82.1409 111.945 82.0002 111.642 81.9759 111.319V52.3974C81.9997 52.0723 82.1396 51.7666 82.3701 51.5362C82.6006 51.3057 82.9063 51.1658 83.2314 51.142C83.5579 51.1615 83.8661 51.3001 84.0974 51.5314C84.3288 51.7627 84.4673 52.0708 84.4869 52.3974V111.093C84.5097 111.452 84.3912 111.806 84.1566 112.079C83.922 112.352 83.59 112.523 83.2314 112.554Z" fill="#411514"/>
<path d="M83.2314 112.554C79.0585 112.591 74.9235 111.76 71.0895 110.112C67.2555 108.465 63.8064 106.037 60.9617 102.984C55.5279 97.2412 52.4753 89.6508 52.4202 81.7451C52.3797 73.8208 55.4461 66.1962 60.9617 60.5061C63.836 57.4911 67.2908 55.089 71.118 53.4443C74.9452 51.7996 79.0657 50.9465 83.2314 50.9361C87.407 50.901 91.5444 51.7335 95.3814 53.3808C99.2184 55.0282 102.671 57.4545 105.522 60.5061C110.95 66.251 113.995 73.8418 114.043 81.7451C114.091 89.6669 111.032 97.2919 105.522 102.984C102.618 105.966 99.1545 108.347 95.3297 109.989C91.5048 111.631 87.3936 112.503 83.2314 112.554ZM83.2314 53.6322C79.4168 53.6359 75.6427 54.4129 72.1369 55.9163C68.6312 57.4196 65.4667 59.6181 62.8346 62.3789C59.0451 66.3662 56.5086 71.3776 55.5395 76.7922C54.5703 82.2069 55.211 87.7868 57.3822 92.8409C59.5534 97.895 63.1597 102.201 67.7544 105.226C72.3491 108.251 77.7303 109.861 83.2314 109.858C87.0494 109.857 90.8275 109.081 94.3369 107.578C97.8464 106.075 101.014 103.875 103.649 101.111C108.591 95.8744 111.345 88.946 111.345 81.7451C111.345 74.5442 108.591 67.6158 103.649 62.3789C101.018 59.6081 97.8515 57.4006 94.3419 55.89C90.8322 54.3794 87.0523 53.5972 83.2314 53.591V53.6322Z" fill="#411514"/>
<path d="M73.0433 134.205H72.8169C65.9827 132.842 59.4806 130.157 53.6757 126.302C53.4698 126.096 53.264 125.684 53.0376 125.458C52.8112 125.232 53.0376 124.635 53.264 124.429C54.3225 123.106 54.9905 121.514 55.1928 119.832C55.3951 118.15 55.1237 116.445 54.4091 114.909C53.6945 113.373 52.5652 112.067 51.1483 111.138C49.7314 110.21 48.0833 109.695 46.3896 109.652C44.3179 109.566 42.2968 110.307 40.7708 111.71C40.6369 111.846 40.4651 111.939 40.2778 111.976C40.0904 112.012 39.8964 111.992 39.7211 111.916C39.3094 111.916 39.1036 111.71 38.8978 111.299C34.9436 105.537 32.244 99.0095 30.9737 92.1383C30.923 91.9718 30.9114 91.7958 30.9398 91.6241C30.9681 91.4524 31.0357 91.2895 31.1372 91.1482C31.2388 91.0068 31.3716 90.8907 31.5253 90.809C31.679 90.7273 31.8494 90.6822 32.0234 90.6771C34.2498 90.4634 36.3167 89.4278 37.8208 87.7726C39.3249 86.1173 40.1582 83.961 40.1582 81.7246C40.1582 79.4881 39.3249 77.3318 37.8208 75.6766C36.3167 74.0213 34.2498 72.9858 32.0234 72.7721C31.8612 72.7692 31.7017 72.7308 31.5559 72.6597C31.4101 72.5886 31.2817 72.4865 31.1796 72.3605C30.9914 72.045 30.9186 71.674 30.9737 71.3109C32.3323 64.4724 35.0249 57.9686 38.8978 52.171C39.1036 51.9446 39.5153 51.7388 39.7211 51.533C40.0842 51.4796 40.4547 51.5522 40.7708 51.7388C42.3667 53.0235 44.3414 53.7468 46.3896 53.7969C47.5523 53.8057 48.7037 53.5682 49.768 53.1C50.8322 52.6317 51.7852 51.9434 52.5642 51.0802C54.1582 49.5089 55.1073 47.3986 55.2254 45.1636C55.3434 42.9285 54.6219 40.73 53.2023 38.9995C53.0592 38.8749 52.96 38.7076 52.9192 38.5224C52.8785 38.3371 52.8983 38.1436 52.9759 37.9705C52.9759 37.5383 53.2023 37.3325 53.6139 37.1267C59.3742 33.1881 65.8939 30.4963 72.7551 29.2238C72.92 29.1734 73.0943 29.1614 73.2645 29.1886C73.4348 29.2159 73.5965 29.2816 73.7375 29.3809C73.8785 29.4802 73.9949 29.6103 74.0779 29.7614C74.1609 29.9125 74.2083 30.0806 74.2165 30.2528C74.4302 32.479 75.4658 34.5458 77.1212 36.0498C78.7766 37.5537 80.933 38.387 83.1696 38.387C85.4063 38.387 87.5627 37.5537 89.218 36.0498C90.8734 34.5458 91.909 32.479 92.1228 30.2528C92.1258 30.0936 92.1644 29.9371 92.2356 29.7947C92.3068 29.6523 92.4089 29.5275 92.5344 29.4296C92.8511 29.2446 93.221 29.172 93.5841 29.2238C100.446 30.58 106.976 33.2647 112.808 37.1267C113.013 37.3325 113.219 37.7647 113.425 37.9705C113.479 38.327 113.406 38.6911 113.219 38.9995C111.797 40.7275 111.072 42.9245 111.186 45.1596C111.3 47.3946 112.246 49.5062 113.837 51.0802C115.469 52.7453 117.681 53.7181 120.011 53.7969C122.082 53.8782 124.102 53.1386 125.63 51.7388C125.759 51.6019 125.928 51.5085 126.112 51.4717C126.296 51.4348 126.488 51.4562 126.659 51.533C127.092 51.533 127.297 51.7388 127.503 52.171C131.454 57.9245 134.147 64.4463 135.407 71.3109C135.457 71.4757 135.469 71.6499 135.442 71.8202C135.415 71.9904 135.349 72.1522 135.25 72.2931C135.15 72.4341 135.02 72.5505 134.869 72.6335C134.718 72.7165 134.55 72.7639 134.378 72.7721C132.151 72.9858 130.084 74.0213 128.58 75.6766C127.076 77.3318 126.243 79.4881 126.243 81.7246C126.243 83.961 127.076 86.1173 128.58 87.7726C130.084 89.4278 132.151 90.4634 134.378 90.6771C134.537 90.6801 134.693 90.7187 134.836 90.7899C134.978 90.8611 135.103 90.9632 135.201 91.0887C135.387 91.4047 135.46 91.7752 135.407 92.1383C134.043 98.978 131.358 105.486 127.503 111.299C127.297 111.505 126.886 111.71 126.659 111.916C126.303 111.97 125.939 111.897 125.63 111.71C124.035 110.424 122.06 109.701 120.011 109.652C118.847 109.62 117.69 109.845 116.623 110.311C115.556 110.777 114.605 111.473 113.837 112.348C112.246 113.922 111.3 116.034 111.186 118.269C111.072 120.504 111.797 122.701 113.219 124.429C113.356 124.558 113.45 124.726 113.486 124.911C113.523 125.095 113.502 125.286 113.425 125.458C113.425 125.89 113.219 126.096 112.808 126.302C107.044 130.249 100.516 132.941 93.6458 134.205C93.2828 134.257 92.9128 134.184 92.5962 133.999C92.3795 133.772 92.2361 133.485 92.1845 133.176C91.9708 130.95 90.9352 128.883 89.2798 127.379C87.6244 125.875 85.468 125.042 83.2314 125.042C80.9947 125.042 78.8383 125.875 77.1829 127.379C75.5276 128.883 74.492 130.95 74.2782 133.176C74.2752 133.335 74.2366 133.491 74.1654 133.634C74.0942 133.776 73.9921 133.901 73.8666 133.999C73.4549 133.999 73.2491 134.205 73.0433 134.205ZM83.2314 122.35C85.8499 122.326 88.3972 123.202 90.4468 124.832C92.4963 126.462 93.9236 128.746 94.4897 131.303C100.064 129.988 105.398 127.807 110.297 124.841C109.184 123.091 108.563 121.075 108.499 119.003C108.435 116.931 108.93 114.879 109.933 113.065C110.935 111.25 112.407 109.738 114.195 108.689C115.983 107.639 118.02 107.091 120.094 107.1C122.288 107.129 124.428 107.778 126.268 108.973C129.359 104.13 131.548 98.7685 132.731 93.1467C130.19 92.5574 127.923 91.1267 126.298 89.0869C124.673 87.047 123.785 84.5178 123.778 81.9098C123.755 79.294 124.632 76.7498 126.262 74.7038C127.892 72.6579 130.176 71.2346 132.731 70.6729C131.412 65.0936 129.232 59.754 126.268 54.8465C124.445 56.0767 122.293 56.7293 120.094 56.7193C118.027 56.7242 115.997 56.1742 114.215 55.1268C112.433 54.0794 110.965 52.573 109.964 50.7648C108.963 48.9566 108.466 46.9129 108.525 44.847C108.583 42.7811 109.195 40.7688 110.297 39.0201C105.458 35.9398 100.103 33.7576 94.4897 32.5784C93.8928 35.1189 92.4571 37.3841 90.4144 39.0085C88.3717 40.6328 85.8412 41.5214 83.2314 41.5309C80.6154 41.5542 78.071 40.6772 76.0249 39.0472C73.9788 37.4172 72.5554 35.1332 71.9936 32.5784C66.4149 33.8898 61.0749 36.0632 56.1661 39.0201C57.2667 40.7673 57.8786 42.7777 57.938 44.8418C57.9973 46.9059 57.502 48.9482 56.5035 50.7558C55.5051 52.5633 54.0401 54.0701 52.2612 55.1189C50.4824 56.1678 48.4547 56.7205 46.3896 56.7193C44.1902 56.7281 42.039 56.0756 40.215 54.8465C37.1378 59.6939 34.9558 65.0544 33.7729 70.6729C36.3167 71.2678 38.5842 72.7063 40.2062 74.7542C41.8281 76.8021 42.709 79.3387 42.7055 81.951C42.7326 84.5677 41.857 87.1139 40.2263 89.1606C38.5955 91.2074 36.3092 92.6296 33.7523 93.1879C35.06 98.7674 37.2337 104.108 40.1945 109.014C42.0222 107.793 44.1709 107.141 46.3691 107.141C48.4342 107.14 50.4618 107.693 52.2407 108.742C54.0195 109.791 55.4845 111.297 56.4829 113.105C57.4814 114.913 57.9767 116.955 57.9174 119.019C57.858 121.083 57.2461 123.093 56.1455 124.841C60.9923 127.924 66.3531 130.113 71.973 131.303C72.5066 128.73 73.9252 126.425 75.9821 124.79C78.0389 123.154 80.604 122.291 83.2314 122.35Z" fill="#411514"/>
<path d="M130.076 42.8069C128.514 42.8028 126.988 42.3359 125.691 41.465C124.394 40.5942 123.384 39.3585 122.789 37.9141C122.194 36.4696 122.04 34.8813 122.347 33.3496C122.655 31.818 123.409 30.4117 124.515 29.3085C125.621 28.2054 127.03 27.4547 128.562 27.1515C130.095 26.8482 131.683 27.0059 133.126 27.6046C134.569 28.2034 135.802 29.2163 136.669 30.5155C137.537 31.8147 138 33.3418 138 34.904C137.963 36.9919 137.115 38.9836 135.637 40.4583C134.158 41.933 132.164 42.7752 130.076 42.8069ZM130.076 29.6971C129.048 29.7052 128.045 30.0175 127.194 30.5946C126.343 31.1716 125.682 31.9876 125.295 32.9398C124.907 33.8919 124.809 34.9375 125.015 35.9448C125.221 36.9521 125.72 37.876 126.45 38.6001C127.179 39.3242 128.107 39.816 129.116 40.0136C130.125 40.2112 131.17 40.1057 132.119 39.7104C133.068 39.3152 133.879 38.6478 134.45 37.7924C135.02 36.9371 135.324 35.932 135.324 34.904C135.303 33.5226 134.742 32.2045 133.761 31.2314C132.78 30.2584 131.458 29.7077 130.076 29.6971Z" fill="#411514"/>
<path d="M32.4145 137.745C30.3547 137.745 28.3412 137.134 26.6285 135.99C24.9159 134.845 23.581 133.219 22.7928 131.316C22.0045 129.413 21.7983 127.319 22.2001 125.299C22.602 123.279 23.5938 121.424 25.0503 119.967C26.5068 118.511 28.3625 117.519 30.3827 117.117C32.4029 116.715 34.4969 116.922 36.3999 117.71C38.3029 118.498 39.9294 119.833 41.0738 121.545C42.2182 123.258 42.829 125.271 42.829 127.331C42.8235 130.091 41.7245 132.737 39.7726 134.688C37.8207 136.64 35.1749 137.739 32.4145 137.745ZM32.4145 119.634C30.8464 119.63 29.3123 120.091 28.0065 120.959C26.7007 121.827 25.6819 123.063 25.0789 124.511C24.476 125.958 24.3162 127.552 24.6196 129.09C24.923 130.629 25.6761 132.042 26.7835 133.153C27.8908 134.263 29.3027 135.02 30.8404 135.327C32.3781 135.634 33.9724 135.479 35.4215 134.88C36.8707 134.28 38.1094 133.265 38.9811 131.961C39.8527 130.658 40.318 129.125 40.318 127.557C40.3207 126.518 40.1182 125.488 39.7223 124.527C39.3263 123.565 38.7445 122.692 38.0104 121.956C37.2762 121.22 36.404 120.636 35.4438 120.237C34.4835 119.839 33.4541 119.634 32.4145 119.634Z" fill="#411514"/>
</svg>
